<svg width="20" height="20" viewBox="0 0 20 20" fill="none" xmlns="http://www.w3.org/2000/svg">
<path d="M10.0003 18.9557C5.05866 18.9557 1.04199 14.9391 1.04199 9.9974C1.04199 5.05573 5.05866 1.03906 10.0003 1.03906C14.942 1.03906 18.9587 5.05573 18.9587 9.9974C18.9587 14.9391 14.942 18.9557 10.0003 18.9557ZM10.0003 2.28906C5.75033 2.28906 2.29199 5.7474 2.29199 9.9974C2.29199 14.2474 5.75033 17.7057 10.0003 17.7057C14.2503 17.7057 17.7087 14.2474 17.7087 9.9974C17.7087 5.7474 14.2503 2.28906 10.0003 2.28906Z" fill="#B95962"/>
<path d="M13.3337 10.625H6.66699C6.32533 10.625 6.04199 10.3417 6.04199 10C6.04199 9.65833 6.32533 9.375 6.66699 9.375H13.3337C13.6753 9.375 13.9587 9.65833 13.9587 10C13.9587 10.3417 13.6753 10.625 13.3337 10.625Z" fill="#B95962"/>
<path d="M10 13.9557C9.65833 13.9557 9.375 13.6724 9.375 13.3307V6.66406C9.375 6.3224 9.65833 6.03906 10 6.03906C10.3417 6.03906 10.625 6.3224 10.625 6.66406V13.3307C10.625 13.6724 10.3417 13.9557 10 13.9557Z" fill="#B95962"/>
</svg>
