<svg width="24" height="25" viewBox="0 0 24 25" fill="none" xmlns="http://www.w3.org/2000/svg">
<path d="M12.0009 14.6675C9.87086 14.6675 8.13086 12.9375 8.13086 10.7975C8.13086 8.6575 9.87086 6.9375 12.0009 6.9375C14.1309 6.9375 15.8709 8.6675 15.8709 10.8075C15.8709 12.9475 14.1309 14.6675 12.0009 14.6675ZM12.0009 8.4375C10.7009 8.4375 9.63086 9.4975 9.63086 10.8075C9.63086 12.1175 10.6909 13.1775 12.0009 13.1775C13.3109 13.1775 14.3709 12.1175 14.3709 10.8075C14.3709 9.4975 13.3009 8.4375 12.0009 8.4375Z" fill="#434343"/>
<path d="M11.9997 23.26C10.5197 23.26 9.02969 22.7 7.86969 21.59C4.91969 18.75 1.65969 14.22 2.88969 8.83C3.99969 3.94 8.26969 1.75 11.9997 1.75C11.9997 1.75 11.9997 1.75 12.0097 1.75C15.7397 1.75 20.0097 3.94 21.1197 8.84C22.3397 14.23 19.0797 18.75 16.1297 21.59C14.9697 22.7 13.4797 23.26 11.9997 23.26ZM11.9997 3.25C9.08969 3.25 5.34969 4.8 4.35969 9.16C3.27969 13.87 6.23969 17.93 8.91969 20.5C10.6497 22.17 13.3597 22.17 15.0897 20.5C17.7597 17.93 20.7197 13.87 19.6597 9.16C18.6597 4.8 14.9097 3.25 11.9997 3.25Z" fill="#434343"/>
</svg>
