<svg width="24" height="25" viewBox="0 0 24 25" fill="none" xmlns="http://www.w3.org/2000/svg">
<path d="M17 21.75H7C3.35 21.75 1.25 19.65 1.25 16V9C1.25 5.35 3.35 3.25 7 3.25H17C20.65 3.25 22.75 5.35 22.75 9V16C22.75 19.65 20.65 21.75 17 21.75ZM7 4.75C4.14 4.75 2.75 6.14 2.75 9V16C2.75 18.86 4.14 20.25 7 20.25H17C19.86 20.25 21.25 18.86 21.25 16V9C21.25 6.14 19.86 4.75 17 4.75H7Z" fill="#434343"/>
<path d="M11.7527 12.1258C10.9127 12.1258 10.0627 11.8658 9.41271 11.3358L6.28271 8.83583C5.96271 8.57583 5.90271 8.10583 6.16271 7.78583C6.42271 7.46583 6.89271 7.40583 7.21271 7.66583L10.3427 10.1658C11.1027 10.7758 12.3927 10.7758 13.1527 10.1658L16.2827 7.66583C16.6027 7.40583 17.0827 7.45583 17.3327 7.78583C17.5927 8.10583 17.5427 8.58583 17.2127 8.83583L14.0827 11.3358C13.4427 11.8658 12.5927 12.1258 11.7527 12.1258Z" fill="#434343"/>
</svg>
